<?xml version="1.0" encoding="iso-8859-1"?>
<!-- Generator: Adobe Illustrator 19.0.0, SVG Export Plug-In . SVG Version: 6.00 Build 0)  -->
<svg version="1.1" id="Layer_1" xmlns="http://www.w3.org/2000/svg" xmlns:xlink="http://www.w3.org/1999/xlink" x="0px" y="0px"
	 viewBox="0 0 512.002 512.002" style="enable-background:new 0 0 512.002 512.002;" xml:space="preserve">
<g transform="translate(0 -1)">
	<g>
		<g>
			<path d="M490.668,385.002H320.001c-5.675,0-11.093,2.24-15.083,6.251l-15.083,15.083h-67.669l-15.083-15.083
				c-3.989-4.011-9.408-6.251-15.083-6.251H21.334c-11.797,0-21.333,9.557-21.333,21.333v64c0,23.531,19.136,42.667,42.667,42.667
				h426.667c23.531,0,42.667-19.136,42.667-42.667v-64C512.001,394.559,502.465,385.002,490.668,385.002z"/>
			<path d="M42.663,342.333h140.501l15.083,15.083c4.011,4.011,9.429,6.251,15.083,6.251h85.333c5.675,0,11.093-2.24,15.083-6.251
				l15.083-15.083H469.33c11.797,0,21.333-9.557,21.333-21.333V43.667C490.663,20.136,471.527,1,447.997,1h-384
				C40.487,1,21.33,20.136,21.33,43.667V321C21.33,332.776,30.866,342.333,42.663,342.333z M338.386,181.971h-8.085h-8.085
				c-13.397,0-24.277-10.901-24.277-24.277c0-13.397,10.88-24.277,24.277-24.277h12.821c9.536,0,18.517,3.712,25.259,10.453
				c3.157,3.157,3.157,8.277,0,11.456c-3.157,3.157-8.277,3.157-11.435,0c-3.691-3.691-8.597-5.717-13.824-5.717h-12.821
				c-4.48,0-8.107,3.627-8.107,8.085s3.627,8.085,8.107,8.085h8.085h8.085c13.397,0,24.277,10.901,24.277,24.277
				c0,13.397-10.88,24.277-24.277,24.277h-12.821c-9.536,0-18.517-3.712-25.259-10.453c-3.157-3.157-3.157-8.277,0-11.456
				c3.157-3.157,8.277-3.157,11.435,0c3.691,3.691,8.597,5.717,13.824,5.717h12.821c4.48,0,8.107-3.627,8.107-8.085
				S342.866,181.971,338.386,181.971z M241.277,133.416h12.843c9.536,0,18.517,3.712,25.259,10.453
				c3.157,3.157,3.157,8.277,0,11.456c-3.157,3.157-8.277,3.157-11.435,0c-3.691-3.691-8.597-5.717-13.824-5.717h-12.843
				c-4.459,0-8.085,3.627-8.085,8.085s3.627,8.085,8.085,8.085h8.107h8.085c13.397,0,24.277,10.901,24.277,24.277
				c0,13.397-10.88,24.277-24.277,24.277h-12.821c-9.557,0-18.517-3.712-25.259-10.453c-3.157-3.157-3.157-8.277,0-11.456
				c3.157-3.157,8.277-3.157,11.435,0c3.691,3.691,8.597,5.717,13.824,5.717h12.821c4.459,0,8.085-3.627,8.085-8.085
				s-3.627-8.085-8.085-8.085h-8.085h-8.107c-13.376,0-24.256-10.901-24.256-24.277
				C217.021,144.296,227.901,133.416,241.277,133.416z M176.551,133.416c7.061,0,13.888,1.941,20.331,5.76
				c3.84,2.304,5.099,7.253,2.816,11.115c-2.304,3.819-7.275,5.099-11.093,2.795c-3.904-2.304-7.957-3.477-12.053-3.477
				c-13.376,0-24.277,10.88-24.277,24.277c0,13.376,10.901,24.256,24.277,24.256c4.096,0,8.149-1.173,12.053-3.477
				c3.819-2.283,8.789-1.024,11.093,2.816c2.283,3.84,1.024,8.789-2.816,11.093c-6.443,3.819-13.269,5.76-20.331,5.76
				c-22.315,0-40.469-18.155-40.469-40.448C136.082,151.571,154.237,133.416,176.551,133.416z"/>
		</g>
	</g>
</g>
<g>
</g>
<g>
</g>
<g>
</g>
<g>
</g>
<g>
</g>
<g>
</g>
<g>
</g>
<g>
</g>
<g>
</g>
<g>
</g>
<g>
</g>
<g>
</g>
<g>
</g>
<g>
</g>
<g>
</g>
</svg>
